<?xml version="1.0" encoding="UTF-8" standalone="no"?>
<!-- Created with Inkscape (http://www.inkscape.org/) -->

<svg
   width="469.99997mm"
   height="470.00015mm"
   viewBox="0 0 469.99997 470.00015"
   version="1.1"
   id="svg1"
   inkscape:version="1.3 (0e150ed6c4, 2023-07-21)"
   sodipodi:docname="mhc++.svg"
   xml:space="preserve"
   xmlns:inkscape="http://www.inkscape.org/namespaces/inkscape"
   xmlns:sodipodi="http://sodipodi.sourceforge.net/DTD/sodipodi-0.dtd"
   xmlns="http://www.w3.org/2000/svg"
   xmlns:svg="http://www.w3.org/2000/svg"><sodipodi:namedview
     id="namedview1"
     pagecolor="#505050"
     bordercolor="#eeeeee"
     borderopacity="1"
     inkscape:showpageshadow="0"
     inkscape:pageopacity="0"
     inkscape:pagecheckerboard="0"
     inkscape:deskcolor="#505050"
     inkscape:document-units="mm"
     inkscape:zoom="0.11313708"
     inkscape:cx="11450.711"
     inkscape:cy="5926.439"
     inkscape:window-width="2560"
     inkscape:window-height="1494"
     inkscape:window-x="-11"
     inkscape:window-y="-11"
     inkscape:window-maximized="1"
     inkscape:current-layer="layer2"
     showguides="false" /><defs
     id="defs1" /><g
     inkscape:groupmode="layer"
     id="layer2"
     inkscape:label="Design"
     transform="translate(-1983.8642,-1861.1922)"><rect
       style="fill:#e2e2e2;fill-opacity:1;stroke-width:3.49998;stroke-linecap:square"
       id="rect25"
       width="1915.327"
       height="1202.1393"
       x="749.94067"
       y="1206.4331"
       sodipodi:insensitive="true" /><rect
       style="fill:#f14323;fill-opacity:1;stroke-width:3.49999;stroke-linecap:square"
       id="rect34"
       width="470"
       height="470"
       x="1983.8641"
       y="1861.1923"
       inkscape:export-filename="rect34.png"
       inkscape:export-xdpi="58.365959"
       inkscape:export-ydpi="58.365959" /><path
       id="path33"
       style="fill:#ffffff;fill-opacity:1;stroke-width:3.49998;stroke-linecap:square"
       d="m 2052.8819,2043.5739 v 105.2368 h 18.8891 v -63.8604 l 9.4438,20.6869 h 11.674 l 9.4437,-20.6869 v 63.8604 h 18.889 v -105.2368 h -18.889 l -15.2806,35.7122 -15.2809,-35.7122 z m 80.0139,0 v 105.2368 h 18.888 v -43.1742 h 30.5623 v 43.1742 h 18.8884 v -105.2368 h -18.8884 v 43.1736 h -30.5623 v -43.1736 z m 111.0443,0 a 31.031378,31.031378 0 0 0 -31.0315,31.0316 v 18.8889 24.2854 a 31.031378,31.031378 0 0 0 31.0315,31.0309 v 0 h 13.7261 v 0 a 31.031378,31.031378 0 0 0 31.0316,-31.0309 h -18.889 a 12.142713,12.142713 0 0 1 -12.1426,12.1428 h -13.7261 a 12.142713,12.142713 0 0 1 -12.1426,-12.1428 v -24.2854 -18.8889 a 12.142713,12.142713 0 0 1 12.1426,-12.1426 h 13.7261 a 12.142713,12.142713 0 0 1 12.1426,12.1426 h 18.889 a 31.031378,31.031378 0 0 0 -31.0316,-31.0316 z m 56.4317,31.0311 v 12.1425 h -11.674 v 18.889 h 11.674 v 12.1427 h 18.8889 v -12.1427 h 11.6743 v -18.889 h -11.6743 v -12.1425 z m 53.9115,0 v 12.1425 h -11.6743 v 18.889 h 11.6743 v 12.1427 h 18.8889 v -12.1427 h 11.6741 v -18.889 h -11.6741 v -12.1425 z" /></g></svg>
